<?xml version="1.0" ?><!DOCTYPE svg  PUBLIC '-//W3C//DTD SVG 1.1//EN'  'http://www.w3.org/Graphics/SVG/1.1/DTD/svg11.dtd'><svg enable-background="new 0 0 150 150" height="150px" id="Слой_1" version="1.1" viewBox="0 0 150 150" width="150px" xml:space="preserve" xmlns="http://www.w3.org/2000/svg" xmlns:xlink="http://www.w3.org/1999/xlink"><g><path d="M99.6171875,56.5595703c-0.7255859-1.6762695-3.0097656-2.3725586-4.3876953-1.9819336   c-0.1904297,0.0537109-0.3642578,0.1391602-0.5283203,0.2412109c-4.0615234-5.4516602-11.2509766-9.0864258-19.4296875-9.0864258   c-8.1801758,0-15.3701172,3.6347656-19.4316406,9.0859375c-0.1630859-0.1020508-0.3369141-0.1870117-0.5273438-0.2407227   c-1.3774414-0.390625-3.6855469-0.3769531-4.4833984,1.9819336c-1.0488281,3.1025391,1.1206055,3.4628906,2.1118164,4.1137695   c-0.3935547,1.4169922-0.6083984,2.8911133-0.6083984,4.4072266c0,10.671875,10.2910156,19.3549805,22.9389648,19.3549805   c12.6464844,0,22.9375-8.6831055,22.9375-19.3549805c0-1.5161133-0.2148438-2.9902344-0.6074219-4.4067383   C98.5927734,60.0229492,100.6738281,59.0004883,99.6171875,56.5595703z" fill="#F4D5B0"/><path d="M88.8076172,57.3232422c0.1025391-0.0717773-0.2119141-0.6303711-1.0664063-1.0097656   C86.9072266,55.9375,85.6552734,55.7329102,84.3125,55.855957c-1.3466797,0.1079102-2.5302734,0.512207-3.2988281,0.9682617   c-0.7802734,0.4560547-1.1103516,0.9379883-1.0224609,1.0283203c0.0986328,0.112793,0.5507813-0.1367188,1.3164063-0.3857422   c0.7646484-0.2539063,1.8574219-0.5161133,3.0898438-0.6152344c1.2294922-0.1123047,2.3466797-0.03125,3.1162109,0.1308594   C88.2861328,57.1416016,88.6943359,57.4262695,88.8076172,57.3232422z" fill="#E94E1B"/><path d="M61.2983398,56.9707031c0.0932617,0.1254883,0.5908203-0.1401367,1.4213867-0.3271484   c0.4106445-0.1123047,0.9208984-0.1479492,1.4785156-0.1767578c0.5639648,0.0019531,1.184082,0.0493164,1.8325195,0.1616211   c2.6269531,0.4604492,4.4355469,1.796875,4.6132813,1.5766602c0.0859375-0.0942383-0.2583008-0.5874023-1.0297852-1.144043   c-0.7641602-0.5581055-1.9648438-1.1479492-3.4057617-1.4165039c-0.7202148-0.1254883-1.4262695-0.1499023-2.0644531-0.097168   c-0.637207,0.0844727-1.2084961,0.2084961-1.6503906,0.4267578C61.597168,56.3798828,61.222168,56.8823242,61.2983398,56.9707031z" fill="#E94E1B"/><path d="M94.3164063,53.996582c4.7744141,10.6010742,4.0195313,10.5087891,4.0195313,10.6010742   c0,8.6894531-6.6347656,15.3173828-15.8671875,17.9350586c-2.328125,0.6557617-4.8251953-4.0913086-7.4140625-4.0913086   c-3.0263672,0-5.8974609,4.6201172-8.5488281,3.7314453c-8.6337891-2.8847656-13.8798828-9.6733398-13.8798828-18.0029297   c0-0.0922852,3.8354492-9.5478516,3.8354492-9.6396484c-2.2924805,2.9057617-14.5581055,10.1430664-8.2949219,18.9033203   c2.6030273,3.6396484-0.6625977,6.6513672,1.7841797,7.074707c3.0473633,0.5288086,3.7597656,3.5834961,4.6206055,5.7133789   c0.0068359,0.0351563,0.0209961,0.0634766,0.0351563,0.0981445c0.5712891,1.3901367,1.2133789,2.3491211,2.6450195,1.8764648   c5.1206055-1.6928711,6.1791992,5.5864258,8.8383789,3.815918c2.1933594-1.453125,3.5688477-1.5307617,4.640625-1.1142578   c0.0634766,0.0283203,0.1342773,0.0566406,0.2045898,0.0917969c0.027832,0.0073242,0.0634766,0.0283203,0.105957,0.0493164   c1.3681641,0.6767578,2.2851563,2.1015625,4.0205078,2.1015625c1.2138672,0,2.25-0.7475586,3.3300781-1.2412109   c0.1201172-0.0566406,0.2392578-0.1054688,0.3583984-0.1552734c0.1630859-0.0634766,0.3183594-0.112793,0.4794922-0.1547852   c0.1064453-0.0283203,0.2197266-0.0566406,0.3251953-0.0634766c0.0566406-0.0141602,0.1054688-0.0214844,0.1621094-0.0283203   c0.0429688-0.0073242,0.0917969-0.0141602,0.1416016-0.0073242c0.734375-0.0561523,1.5302734,0.1762695,2.4404297,0.9238281   C86.1357422,95.5742188,86.9824219,89.2612305,89,90.2915039c3.1953125,1.6362305,4.203125-2.1162109,5.7832031-3.9501953   c0.0146484-0.0141602,0.0292969-0.0283203,0.0429688-0.0419922c0.1132813-0.1274414,0.2255859-0.2470703,0.3457031-0.3530273   c0.3740234-0.331543,0.7822266-0.5361328,1.2626953-0.550293c5.9667969-0.1201172,1.296875-8.3227539,5.5292969-11.9624023   C104.9658203,70.8432617,100.5927734,56.3339844,94.3164063,53.996582z" fill="#E94E1B"/><path d="M106.4736328,106.5600586c-0.7060547-0.2602539-1.2363281-0.7402344-1.5751953-1.2412109   c-0.4150391-0.5922852-0.6191406-1.1352539-0.7539063-1.4672852c0.0273438-0.0209961,0.0488281-0.0283203,0.0839844-0.0493164   c0.5449219-0.331543,1.2841797-0.7827148,2.109375-1.2763672c0.8261719-0.5009766,1.5732422-0.9521484,2.1083984-1.2485352   c0.0927734-0.0424805,0.1621094-0.0913086,0.2333984-0.1337891c0.1621094,0.2817383,0.5644531,0.8110352,0.9873047,1.59375   c0.2900391,0.5429688,0.5283203,1.2412109,0.4726563,1.9677734c-0.0644531,0.7128906-0.5361328,1.4042969-1.3125,1.7568359   C108.0605469,106.8286133,107.1787109,106.8144531,106.4736328,106.5600586z" fill="#F4D5B0"/><path d="M103.03125,104.0605469c-0.1699219-0.2607422-0.6357422-0.7612305-1.3486328-1.3823242   c-0.2460938-0.2255859-0.5283203-0.4658203-0.8378906-0.7197266c0.6484375-0.359375,1.7695313-1.1777344,3.0322266-2.1650391   c1.6728516-1.2836914,3.0537109-2.3417969,3.203125-2.7226563c0.1748047,0.2680664,0.6123047,0.2109375,0.7539063,0.4648438   c0.7724609,1.2993164,1.1103516,1.5415039,1.2626953,3.0898438c-0.0488281-0.0141602-0.1054688-0.0351563-0.1914063-0.0424805   c-0.2109375-0.0419922-0.4931641-0.0068359-0.8251953,0.078125c-0.6689453,0.1479492-1.1933594,0.7260742-2.0537109,1.2475586   c-0.8671875,0.5146484-1.5302734,1.2207031-1.9970703,1.7001953c-0.3583984,0.3881836-0.921875,0.3813477-0.9414063,0.543457   C103.0732422,104.1240234,103.0585938,104.1030273,103.03125,104.0605469z" fill="#024421"/><path d="M68.5493164,109.3188477c0.1547852-1.8974609,0.3027344-4.1118164,0.5073242-6.4746094   c0.1552734-1.7143555,0.3598633-3.3364258,0.5927734-4.8037109c0.2539063-1.4672852,0.5292969-2.7724609,0.8178711-3.8583984   c0.3461914-1.3120117,0.6704102-2.3134766,0.8466797-2.9057617V91.269043   c0.0844727-0.3173828,0.1269531-0.5214844,0.112793-0.5996094c1.3686523,0.6767578,2.2861328,2.1020508,4.0205078,2.1020508   c1.2138672,0,2.2509766-0.7475586,3.3291016-1.2416992c0.1845703,0.6069336,0.4521484,1.4672852,0.734375,2.5395508   c0.2958984,1.0864258,0.5634766,2.3979492,0.8183594,3.8579102c0.2333984,1.4672852,0.4375,3.0966797,0.5927734,4.8110352   c0.2109375,2.390625,0.3583984,4.6337891,0.5136719,6.5449219c-0.8603516-0.2250977-3.3857422-0.4511719-6.3828125-0.5073242   C71.8925781,108.8535156,69.2612305,109.0859375,68.5493164,109.3188477z M75.9609375,96.996582   c0-0.65625-0.5351563-1.1918945-1.1914063-1.1918945c-0.6552734,0-1.1914063,0.5356445-1.1914063,1.1918945   s0.5361328,1.1918945,1.1914063,1.1918945C75.4257813,98.1884766,75.9609375,97.652832,75.9609375,96.996582z    M75.9609375,102.7524414c0-0.65625-0.5351563-1.1918945-1.1914063-1.1918945   c-0.6552734,0-1.1914063,0.5356445-1.1914063,1.1918945c0,0.6552734,0.5361328,1.1918945,1.1914063,1.1918945   C75.4257813,103.9443359,75.9609375,103.4077148,75.9609375,102.7524414z" fill="#8FD1AE"/><path d="M85.5136719,95.2119141c-1.9833984-2.1230469-4.0859375-3.4916992-5.2705078-4.0908203   c0.734375-0.0566406,1.6103516-0.8295898,2.5214844-0.0820313c3.8359375,3.159668,4.2021484-2.9487305,6.21875-1.9189453   c3.1962891,1.6362305,3.34375-2.2543945,6.1855469-3.1479492c0.3828125,0.2675781,0.8320313,0.578125,1.3408203,0.9379883   c1.6708984,1.1845703,3.9628906,2.8491211,6.2138672,4.972168c1.1220703,1.0727539,2.1171875,2.1591797,2.9697266,3.1953125   c0.5351563,0.7055664,1.0292969,1.3686523,1.4521484,1.9960938c-0.4296875,0-2.03125,0.7763672-3.7246094,2.0742188   c-1.3320313,1.043457-2.3554688,2.0732422-2.7783203,2.6586914c-0.8037109-0.6411133-1.7421875-1.3608398-2.7421875-2.1157227   c-1.5673828-1.1708984-2.9628906-2.2426758-3.9648438-3.0332031c-0.4873047-0.3945313-0.8896484-0.7192383-1.1865234-0.9306641   c-0.0058594,0-0.0126953-0.0073242-0.0205078-0.0141602c-0.2890625-0.2045898-0.4638672-0.2963867-0.5205078-0.2470703   c-0.0644531,0.0566406,0.1396484,0.409668,0.5703125,0.9384766c0.1201172,0.4365234,0.296875,1.0722656,0.4511719,1.8754883   c0.3398438,1.5805664,0.5429688,3.8022461,0.6914063,6.2919922c0.1474609,2.4902344,0.3017578,4.7680664,0.5849609,6.4116211   c0.2324219,1.4033203,0.2890625,2.215332,0.4511719,2.4335938c-0.2382813-0.0986328-0.9160156,0.0424805-2.2207031,0.1835938   c-0.0224609-0.0283203-0.0439453-0.0356445-0.0566406-0.0356445c-0.0214844,0.0073242-0.0292969,0.0214844-0.0439453,0.0498047   c-1.0839844,0.1196289-2.4326172,0.3100586-3.8847656,0.5498047c-1.7705078,0.2255859-3.3583984,0.5083008-4.5292969,0.6064453   c-1.0078125,0.1206055-1.6855469,0.2612305-1.8476563,0.3808594c0.0849609-0.3027344,0.0429688-1.6289063-0.0126953-3.625   c-0.0439453-1.2202148-0.0859375-2.7016602-0.1572266-4.3520508c0.3261719-0.105957,0.8476563-0.3598633,1.5175781-0.7192383   c0.2734375-0.1479492,0.5703125-0.3173828,0.8808594-0.4941406c0.3115234-0.1972656,0.6279297-0.4160156,0.9746094-0.6420898   c0.3388672-0.2324219,0.6904297-0.4790039,1.0566406-0.7333984c0.296875-0.2114258,0.6064453-0.4306641,0.9111328-0.6557617   l0.2753906-0.1904297c0.0839844-0.0356445-0.0292969-0.0708008-0.0498047-0.0991211l-0.1201172-0.0986328l-0.4931641-0.3876953   l-0.4882813-0.3876953l-0.2880859-0.1977539C86.1894531,102.4345703,86,102.3007813,85.8085938,102.1875   c-0.3740234-0.2397461-0.7402344-0.4648438-1.0859375-0.6694336c-0.6904297-0.4091797-1.3125-0.7763672-1.8330078-1.0864258   c-0.5996094-0.3666992-1.0517578-0.6704102-1.3486328-0.8393555c-0.0058594-0.0561523-0.0126953-0.1201172-0.0273438-0.1762695   C81.8730469,99.2890625,82.4794922,99,83.2265625,98.5761719c0.6015625-0.3168945,1.3134766-0.7050781,2.1103516-0.9731445   c0.0976563-0.0351563,0.2041016-0.0634766,0.3017578-0.0981445c0.0146484-0.0073242,0.2333984-0.0639648,0.3193359-0.078125   l0.3388672-0.0634766c0.2314453-0.0493164,0.4648438-0.0986328,0.6982422-0.1411133l0.1748047-0.0424805   c0.0146484-0.0068359,0.0927734,0,0.0634766-0.027832l-0.0634766-0.0639648l-0.2314453-0.2680664   C86.4785156,96.2978516,86,95.762207,85.5136719,95.2119141z" fill="#006633"/><path d="M81.9160156,102.6464844c-0.078125-0.8325195-0.1689453-1.6430664-0.2744141-2.4335938   c0.2109375,0.2329102,0.4863281,0.5004883,0.8378906,0.7905273c0.4794922,0.4013672,1.0800781,0.8388672,1.7421875,1.2900391   c0.3388672,0.2255859,0.6845703,0.4589844,1.0439453,0.7055664c0.1767578,0.1269531,0.3603516,0.2539063,0.5371094,0.3808594   l0.2734375,0.1904297l0.0566406,0.0419922c0.0146484,0.0214844,0.0507813,0.0424805,0.0712891,0.0639648v0.0068359   c0,0-0.0146484,0.0068359-0.1748047,0.1337891c-0.3466797,0.2612305-0.6787109,0.5151367-0.9951172,0.7548828   c-0.3115234,0.2470703-0.6074219,0.4794922-0.8896484,0.7050781c-0.2890625,0.2045898-0.5576172,0.4023438-0.8046875,0.5859375   c-0.5,0.3740234-0.8955078,0.684082-1.1484375,0.9238281C82.1279297,105.4887695,82.0419922,104.0991211,81.9160156,102.6464844z" fill="#024421"/><path d="M80.1875,93.8647461c-0.3808594-1.0791016-0.7548828-1.9257813-1.0517578-2.4902344   c0.1640625-0.0629883,0.3193359-0.1123047,0.4794922-0.1547852c0.8339844,0.7543945,3.0263672,2.3696289,5.1708984,4.6762695   c0.1699219,0.1904297,0.3388672,0.3808594,0.5087891,0.5639648c0.1201172,0.1274414,0.0908203,0.0991211,0.0976563,0.1064453   l0.0078125,0.0068359c0.0146484,0,0.0146484,0.0141602,0.0146484,0.0141602l-0.0078125,0.0073242   c0,0-0.0146484,0.0068359-0.0361328,0.0141602c-0.1132813,0.0415039-0.2314453,0.0839844-0.3447266,0.1264648   c-0.9033203,0.3598633-1.6083984,0.8393555-2.171875,1.2416992c-0.6279297,0.4726563-1.1005859,0.8393555-1.3896484,1.1000977   c-0.0712891-0.4511719-0.1494141-0.8886719-0.2333984-1.3120117C80.9287109,96.2768555,80.5751953,94.9511719,80.1875,93.8647461z" fill="#024421"/><circle cx="74.7695313" cy="96.996582" fill="#1D1D1B" r="1.1918945"/><path d="M74.7695313,101.5605469c0.65625,0,1.1914063,0.5356445,1.1914063,1.1918945   c0,0.6552734-0.5351563,1.1918945-1.1914063,1.1918945c-0.6552734,0-1.1914063-0.5366211-1.1914063-1.1918945   C73.578125,102.0961914,74.1142578,101.5605469,74.7695313,101.5605469z" fill="#1D1D1B"/><path d="M66.6376953,105.9682617c-0.246582-0.1762695-0.5151367-0.3735352-0.8041992-0.5849609   c-0.2822266-0.21875-0.578125-0.4516602-0.8886719-0.6987305c-0.3178711-0.246582-0.6494141-0.5009766-0.9946289-0.7617188   c-0.1552734-0.112793-0.1762695-0.1269531-0.1762695-0.1269531v-0.0073242   c0.0141602-0.0205078,0.0566406-0.0488281,0.0708008-0.0629883l0.0556641-0.0424805l0.2753906-0.1972656   c0.1835938-0.1269531,0.3598633-0.2543945,0.5361328-0.3740234c0.3598633-0.2470703,0.7124023-0.4863281,1.0439453-0.7124023   c0.6630859-0.4516602,1.2626953-0.8886719,1.7421875-1.2836914c0.3525391-0.2890625,0.6279297-0.5644531,0.8466797-0.7900391   c-0.112793,0.7832031-0.2045898,1.5942383-0.2822266,2.4267578c-0.1274414,1.4594727-0.2119141,2.8491211-0.2753906,4.1396484   C67.5332031,106.6601563,67.1386719,106.3422852,66.6376953,105.9682617z" fill="#024421"/><path d="M64.5708008,96.6787109c0-0.0068359-0.0209961,0.0214844,0.0424805-0.0493164   c0.0849609-0.0913086,0.1621094-0.1899414,0.2612305-0.2817383c0.1831055-0.1835938,0.3735352-0.3666992,0.5639648-0.5571289   c1.5375977-1.4956055,3.1176758-2.6806641,4.2319336-3.5761719c0.4726563-0.3740234,0.8676758-0.6918945,1.1635742-0.9453125   c-0.0068359,0.0141602-0.0068359,0.0283203-0.0136719,0.0424805c-0.0634766,0.1479492-0.0986328,0.2958984-0.105957,0.4228516   c-0.2749023,0.5576172-0.5996094,1.3120117-0.9238281,2.2431641c-0.3881836,1.0859375-0.7407227,2.4052734-1.0439453,3.9008789   c-0.0849609,0.4228516-0.1621094,0.8603516-0.2329102,1.3115234c-0.3032227-0.2680664-0.8041992-0.6557617-1.4741211-1.15625   c-0.5922852-0.4233398-1.340332-0.9174805-2.2993164-1.2626953l-0.1831055-0.0639648c0-0.0068359,0-0.0068359,0-0.0068359   l-0.0073242-0.0073242c-0.0141602-0.0068359,0.0141602-0.0141602,0.0141602-0.0141602H64.5708008z" fill="#024421"/><path d="M49.4833984,102.1523438c-0.2680664-0.5078125-1.3891602-1.6923828-2.9272461-2.8984375   c-1.6928711-1.2910156-3.2939453-2.0673828-3.7241211-2.0673828c0.4228516-0.6342773,0.909668-1.2973633,1.453125-2.0029297   c0.8535156-1.0366211,1.8476563-2.1230469,2.9692383-3.1879883c2.2504883-2.1303711,4.5424805-3.7875977,6.2143555-4.9726563   c0.5922852-0.4238281,1.1074219-0.7832031,1.5234375-1.0722656c0.5712891,1.3896484,1.2133789,2.3486328,2.6450195,1.8764648   c5.1206055-1.6928711,6.1791992,5.5859375,8.8383789,3.815918c2.1933594-1.453125,3.5693359-1.53125,4.640625-1.1142578   c-0.0068359,0.0493164-0.0209961,0.0986328-0.0351563,0.1479492c-0.3666992,0.140625-1.0014648,0.4584961-1.8125,0.9521484   c-1.234375,0.762207-2.9130859,1.8833008-4.5283203,3.4418945c-0.1977539,0.1972656-0.3950195,0.3950195-0.5854492,0.5927734   c-0.0991211,0.0913086-0.1835938,0.1977539-0.2753906,0.3032227c-0.1552734,0.1831055-0.3100586,0.359375-0.465332,0.5429688   c-0.1689453,0.1904297-0.3310547,0.3808594-0.4931641,0.5712891L62.800293,97.222168   c-0.0073242,0.0209961-0.0703125,0.0566406-0.0283203,0.0566406l0.0922852,0.0209961l0.3666992,0.0776367   c0.2397461,0.0424805,0.472168,0.0917969,0.7050781,0.1411133c0.105957,0.0141602,0.2470703,0.0493164,0.359375,0.0776367   l0.1621094,0.0493164c0.8398438,0.2539063,1.5805664,0.6484375,2.2084961,0.9873047   c0.796875,0.4443359,1.4243164,0.7548828,1.7983398,0.8891602c-0.0141602,0.0561523-0.0209961,0.1196289-0.0283203,0.1831055   c-0.2958984,0.1694336-0.7475586,0.472168-1.347168,0.8320313c-0.5214844,0.3105469-1.1425781,0.6772461-1.8334961,1.0864258   c-0.3457031,0.2045898-0.7128906,0.4301758-1.0864258,0.6699219c-0.1904297,0.1201172-0.3740234,0.2539063-0.5712891,0.3808594   l-0.2890625,0.2045898l-0.4873047,0.3808594l-0.4936523,0.3950195l-0.1196289,0.0917969   c-0.0209961,0.0351563-0.1342773,0.0634766-0.0493164,0.0986328l0.2749023,0.1972656   c0.3105469,0.2192383,0.6137695,0.4379883,0.9101563,0.6494141c0.3662109,0.2539063,0.71875,0.5009766,1.0576172,0.7333984   c0.3461914,0.2324219,0.6704102,0.4443359,0.9736328,0.6489258c0.3105469,0.1767578,0.6064453,0.3388672,0.8813477,0.4868164   c0.6704102,0.359375,1.1923828,0.6137695,1.5166016,0.7260742c-0.0708008,1.6435547-0.112793,3.125-0.1552734,4.3457031   c-0.0634766,2.0522461-0.1054688,3.3925781-0.0068359,3.6396484c-0.1552734-0.1274414-0.8388672-0.2685547-1.8549805-0.3950195   c-1.1640625-0.0917969-2.7578125-0.3740234-4.5283203-0.6000977c-1.4526367-0.2470703-2.793457-0.4375-3.8867188-0.5571289   c-0.0141602-0.0209961-0.0209961-0.0424805-0.0424805-0.0424805c-0.0141602-0.0068359-0.034668,0.0073242-0.0561523,0.0356445   c-1.3046875-0.1484375-2.0805664-0.2119141-2.3208008-0.1201172c0.1621094-0.2114258,0.3178711-1.1000977,0.550293-2.5039063   c0.2822266-1.6367188,0.4375-3.9145508,0.5859375-6.4047852c0.1479492-2.4897461,0.3525391-4.71875,0.690918-6.2915039   c0.1621094-0.8251953,0.3383789-1.4741211,0.4584961-1.9116211c0.4228516-0.5219727,0.6279297-0.8603516,0.5644531-0.909668   c-0.2402344-0.2050781-2.5322266,1.9257813-5.5869141,4.3520508   C51.1835938,100.706543,50.2666016,101.4682617,49.4833984,102.1523438z" fill="#006633"/><path d="M40.7304688,100.8686523c0.2255859-0.3105469,0.6835938-1.3540039,1.5302734-2.7719727   c0.1411133-0.246582,0.3032227-0.5078125,0.4794922-0.7753906c0.1484375,0.3808594,1.5307617,1.4384766,3.2021484,2.722168   c1.4746094,1.1503906,2.7509766,2.0805664,3.3081055,2.3061523c-1.0439453,0.9101563-1.7983398,1.6508789-2.1230469,2.0600586   c-0.0776367,0.0917969-0.1269531,0.1694336-0.1552734,0.2260742c-0.0493164-0.3808594-1.1210938-1.5732422-2.7290039-2.5537109   c-0.8896484-0.5571289-1.7636719-0.9589844-2.4550781-1.1425781   C41.3154297,100.7983398,40.9208984,100.8056641,40.7304688,100.8686523z" fill="#024421"/><path d="M41.5200195,101.5952148c0.5644531,0.324707,1.340332,0.8041992,2.1938477,1.340332   c0.796875,0.4794922,1.5019531,0.9379883,2.0522461,1.2763672c-0.1337891,0.3320313-0.3388672,0.8393555-0.7265625,1.4038086   c-0.3383789,0.4941406-0.8671875,0.9736328-1.5727539,1.2416992c-0.7050781,0.253418-1.5869141,0.2607422-2.3554688-0.0991211   c-0.7763672-0.359375-1.2485352-1.0507813-1.3125-1.7631836c-0.0566406-0.7192383,0.1835938-1.4174805,0.4726563-1.9609375   c0.4233398-0.7827148,0.8256836-1.3115234,0.987793-1.5942383C41.34375,101.4897461,41.4213867,101.5322266,41.5200195,101.5952148   z" fill="#F4D5B0"/><path d="M110.3339844,102.3745117c-0.5576172-0.7480469-1.0634766-1.1708984-1.3681641-1.3544922   c0.0634766-0.0283203,0.1279297-0.0566406,0.1767578-0.0913086c0.1005859-0.0546875,0.1601563-0.1079102,0.1992188-0.1586914   h0.046875c0-0.0180664-0.0039063-0.0483398-0.0058594-0.0712891c0-0.0029297,0.0058594-0.0073242,0.0058594-0.0102539   c0.0146484-0.0068359,0.0214844-0.0351563,0.0214844-0.0991211h-0.0380859   c-0.0673828-0.4755859-0.3623047-1.5380859-1.0332031-2.9365234c-0.4375-0.9526367-1.1152344-2.0102539-1.9199219-3.1391602   c-0.8388672-1.1074219-1.8466797-2.25-3.0048828-3.3505859c-2.3271484-2.1933594-4.7324219-3.8017578-6.5234375-4.8457031   c-0.4140625-0.2373047-0.7861328-0.4467773-1.1279297-0.6254883c-0.0117188-0.0107422-0.0185547-0.019043-0.03125-0.0302734   c-0.0283203-0.0141602-0.0478516-0.027832-0.0703125-0.0419922c-0.0029297,0.003418-0.0068359,0.0078125-0.0117188,0.0117188   c-0.0058594-0.0039063-0.0146484-0.0083008-0.0214844-0.0117188c0.0058594,0.0063477,0.0107422,0.0102539,0.0175781,0.0166016   c-0.1132813,0.1015625-0.2216797,0.2148438-0.3291016,0.3359375c0.2041016,0.1337891,0.0996094,0.0913086-0.1044922-0.0424805   c-0.0136719,0.0141602-0.0283203,0.0283203-0.0429688,0.0424805c0.3828125,0.2675781,0.8320313,0.578125,1.3408203,0.9379883   c1.6708984,1.1845703,3.9628906,2.8491211,6.2138672,4.972168c1.1220703,1.0727539,2.1171875,2.1591797,2.9697266,3.1953125   c0.5351563,0.7055664,1.0292969,1.3686523,1.4521484,1.9960938c-0.4296875,0-2.03125,0.7763672-3.7246094,2.0742188   c-1.3320313,1.043457-2.3554688,2.0732422-2.7783203,2.6586914c-0.8037109-0.6411133-1.7421875-1.3608398-2.7421875-2.1157227   c-1.5673828-1.1708984-2.9628906-2.2426758-3.9648438-3.0332031c-0.4873047-0.3945313-0.8896484-0.7192383-1.1865234-0.9306641   c-0.0058594,0-0.0126953-0.0073242-0.0205078-0.0141602c-0.2890625-0.2045898-0.4638672-0.2963867-0.5205078-0.2470703   c-0.0644531,0.0566406,0.1396484,0.409668,0.5703125,0.9384766c0.1201172,0.4365234,0.296875,1.0722656,0.4511719,1.8754883   c0.3398438,1.5805664,0.5429688,3.8022461,0.6914063,6.2919922c0.1474609,2.4902344,0.3017578,4.7680664,0.5849609,6.4116211   c0.2324219,1.4033203,0.2890625,2.215332,0.4511719,2.4335938c-0.2382813-0.0986328-0.9160156,0.0424805-2.2207031,0.1835938   c-0.0224609-0.0283203-0.0439453-0.0356445-0.0566406-0.0356445c-0.0214844,0.0073242-0.0292969,0.0214844-0.0439453,0.0498047   c-1.0839844,0.1196289-2.4326172,0.3100586-3.8847656,0.5498047c-1.7705078,0.2255859-3.3583984,0.5083008-4.5292969,0.6064453   c-1.0078125,0.1206055-1.6855469,0.2612305-1.8476563,0.3808594c0.0849609-0.3027344,0.0429688-1.6289063-0.0126953-3.625   c-0.0439453-1.2202148-0.0859375-2.7016602-0.1572266-4.3520508c0.3261719-0.105957,0.8476563-0.3598633,1.5175781-0.7192383   c0.2734375-0.1479492,0.5703125-0.3173828,0.8808594-0.4941406c0.3115234-0.1972656,0.6279297-0.4160156,0.9746094-0.6420898   c0.3388672-0.2324219,0.6904297-0.4790039,1.0566406-0.7333984c0.296875-0.2114258,0.6064453-0.4306641,0.9111328-0.6557617   l0.2753906-0.1904297c0.0839844-0.0356445-0.0292969-0.0708008-0.0498047-0.0991211l-0.1201172-0.0986328l-0.4931641-0.3876953   l-0.4882813-0.3876953l-0.2880859-0.1977539C86.1894531,102.4345703,86,102.3007813,85.8085938,102.1875   c-0.3740234-0.2397461-0.7402344-0.4648438-1.0859375-0.6694336c-0.6904297-0.4091797-1.3125-0.7763672-1.8330078-1.0864258   c-0.5996094-0.3666992-1.0517578-0.6704102-1.3486328-0.8393555c-0.0058594-0.0561523-0.0126953-0.1201172-0.0273438-0.1762695   C81.8730469,99.2890625,82.4794922,99,83.2265625,98.5761719c0.6015625-0.3168945,1.3134766-0.7050781,2.1103516-0.9731445   c0.0976563-0.0351563,0.2041016-0.0634766,0.3017578-0.0981445c0.0146484-0.0073242,0.2333984-0.0639648,0.3193359-0.078125   l0.3388672-0.0634766c0.2314453-0.0493164,0.4648438-0.0986328,0.6982422-0.1411133l0.1748047-0.0424805   c0.0146484-0.0068359,0.0927734,0,0.0634766-0.027832l-0.0634766-0.0639648l-0.2314453-0.2680664   C86.4785156,96.2978516,86,95.762207,85.5136719,95.2119141c-1.9833984-2.1230469-4.0859375-3.4916992-5.2705078-4.0908203   c-0.0488281-0.0068359-0.0976563,0-0.1396484,0.0073242c0.0068359,0.0136719,0.0068359,0.027832,0,0.034668   c-0.0146484,0.0209961-0.0712891,0.0209961-0.1621094-0.0068359c-0.1054688,0.0068359-0.21875,0.0351563-0.3261719,0.0634766   c0.8339844,0.7543945,3.0263672,2.3696289,5.1708984,4.6762695c0.1699219,0.1904297,0.3388672,0.3808594,0.5087891,0.5639648   c0.1201172,0.1274414,0.0908203,0.0991211,0.0976563,0.1064453l0.0078125,0.0068359   c0.0146484,0,0.0146484,0.0141602,0.0146484,0.0141602l-0.0078125,0.0073242c0,0-0.0146484,0.0068359-0.0361328,0.0141602   c-0.1132813,0.0415039-0.2314453,0.0839844-0.3447266,0.1264648c-0.9033203,0.3598633-1.6083984,0.8393555-2.171875,1.2416992   c-0.6279297,0.4726563-1.1005859,0.8393555-1.3896484,1.1000977c-0.0712891-0.4511719-0.1494141-0.8886719-0.2333984-1.3120117   c-0.3027344-1.4882813-0.65625-2.8139648-1.0439453-3.9003906c-0.3808594-1.0791016-0.7548828-1.9257813-1.0517578-2.4902344   c-0.1181641,0.0498047-0.2382813,0.0991211-0.359375,0.1552734c0.1845703,0.6069336,0.4521484,1.4672852,0.734375,2.5395508   c0.2958984,1.0864258,0.5634766,2.3979492,0.8183594,3.8579102c0.2333984,1.4672852,0.4375,3.0966797,0.5927734,4.8110352   c0.2109375,2.390625,0.3583984,4.6337891,0.5136719,6.5449219c-0.8603516-0.2250977-3.3857422-0.4511719-6.3828125-0.5073242   c-3.1601563,0.0776367-5.7915039,0.3100586-6.503418,0.5429688c0.1547852-1.8974609,0.3027344-4.1118164,0.5073242-6.4746094   c0.1552734-1.7143555,0.3598633-3.3364258,0.5927734-4.8037109c0.2539063-1.4672852,0.5292969-2.7724609,0.8178711-3.8583984   c0.340332-1.2915039,0.6582031-2.2773438,0.8364258-2.8730469c0.171875-0.3085938,0.1572266-0.7441406,0.1230469-0.6396484   c0,0.1269531-0.2753906,0.1694336-0.3457031,0.0073242c-0.3666992,0.140625-1.0014648,0.4584961-1.8125,0.9521484   c-1.234375,0.762207-2.9130859,1.8833008-4.5283203,3.4418945c-0.1977539,0.1972656-0.3950195,0.3950195-0.5854492,0.5927734   c-0.0991211,0.0913086-0.1835938,0.1977539-0.2753906,0.3032227c-0.1552734,0.1831055-0.3100586,0.359375-0.465332,0.5429688   c-0.1689453,0.1904297-0.3310547,0.3808594-0.4931641,0.5712891L62.800293,97.222168   c-0.0073242,0.0209961-0.0703125,0.0566406-0.0283203,0.0566406l0.0922852,0.0209961l0.3666992,0.0776367   c0.2397461,0.0424805,0.472168,0.0917969,0.7050781,0.1411133c0.105957,0.0141602,0.2470703,0.0493164,0.359375,0.0776367   l0.1621094,0.0493164c0.8398438,0.2539063,1.5805664,0.6484375,2.2084961,0.9873047   c0.796875,0.4443359,1.4243164,0.7548828,1.7983398,0.8891602c-0.0141602,0.0561523-0.0209961,0.1196289-0.0283203,0.1831055   c-0.2958984,0.1694336-0.7475586,0.472168-1.347168,0.8320313c-0.5214844,0.3105469-1.1425781,0.6772461-1.8334961,1.0864258   c-0.3457031,0.2045898-0.7128906,0.4301758-1.0864258,0.6699219c-0.1904297,0.1201172-0.3740234,0.2539063-0.5712891,0.3808594   l-0.2890625,0.2045898l-0.4873047,0.3808594l-0.4936523,0.3950195l-0.1196289,0.0917969   c-0.0209961,0.0351563-0.1342773,0.0634766-0.0493164,0.0986328l0.2749023,0.1972656   c0.3105469,0.2192383,0.6137695,0.4379883,0.9101563,0.6494141c0.3662109,0.2539063,0.71875,0.5009766,1.0576172,0.7333984   c0.3461914,0.2324219,0.6704102,0.4443359,0.9736328,0.6489258c0.3105469,0.1767578,0.6064453,0.3388672,0.8813477,0.4868164   c0.6704102,0.359375,1.1923828,0.6137695,1.5166016,0.7260742c-0.0708008,1.6435547-0.112793,3.125-0.1552734,4.3457031   c-0.0634766,2.0522461-0.1054688,3.3925781-0.0068359,3.6396484c-0.1552734-0.1274414-0.8388672-0.2685547-1.8549805-0.3950195   c-1.1640625-0.0917969-2.7578125-0.3740234-4.5283203-0.6000977c-1.4526367-0.2470703-2.793457-0.4375-3.8867188-0.5571289   c-0.0141602-0.0209961-0.0209961-0.0424805-0.0424805-0.0424805c-0.0141602-0.0068359-0.034668,0.0073242-0.0561523,0.0356445   c-1.3046875-0.1484375-2.0805664-0.2119141-2.3208008-0.1201172c0.1621094-0.2114258,0.3178711-1.1000977,0.550293-2.5039063   c0.2822266-1.6367188,0.4375-3.9145508,0.5859375-6.4047852c0.1479492-2.4897461,0.3525391-4.71875,0.690918-6.2915039   c0.1621094-0.8251953,0.3383789-1.4741211,0.4584961-1.9116211c0.4228516-0.5219727,0.6279297-0.8603516,0.5644531-0.909668   c-0.2402344-0.2050781-2.5322266,1.9257813-5.5869141,4.3520508c-1.0009766,0.7827148-1.9179688,1.5444336-2.7011719,2.2285156   c-0.2680664-0.5078125-1.3891602-1.6923828-2.9272461-2.8984375c-1.6928711-1.2910156-3.2939453-2.0673828-3.7241211-2.0673828   c0.4228516-0.6342773,0.909668-1.2973633,1.453125-2.0029297c0.8535156-1.0366211,1.8476563-2.1230469,2.9692383-3.1879883   c2.2504883-2.1303711,4.5424805-3.7875977,6.2143555-4.9726563c0.5922852-0.4238281,1.4951172-1.1357422,1.4882813-1.1708984   c-0.355957,0.1572266-0.5986328,0.2705078-0.7446289,0.3129883c0.2109375-0.0795898,0.3583984-0.5585938,0.3334961-0.5400391   c-0.4248047,0.21875-0.9086914,0.4790039-1.465332,0.7978516c-1.7841797,1.0512695-4.1899414,2.652832-6.5170898,4.8461914   c-1.1572266,1.1005859-2.1655273,2.25-3.0053711,3.3500977c-0.8037109,1.1289063-1.480957,2.1870117-1.9179688,3.1459961   c-0.7758789,1.6015625-1.0576172,2.7719727-1.0576172,3.1108398c0,0.0634766,0.0141602,0.0991211,0.027832,0.105957   c0.0068359,0.0913086,0.1694336,0.1835938,0.4228516,0.331543c-0.3027344,0.1762695-0.8110352,0.5996094-1.3681641,1.3540039   c-0.3950195,0.5571289-0.8041992,1.3613281-0.7900391,2.3911133c0.0283203,0.5078125,0.1835938,1.0512695,0.5078125,1.5166016   c0.3173828,0.465332,0.7758789,0.8393555,1.2978516,1.0859375c1.0576172,0.4941406,2.2290039,0.4375,3.125,0.0498047   c0.909668-0.4023438,1.5234375-1.0932617,1.8408203-1.7285156c0.3173828-0.6489258,0.4301758-1.1918945,0.4580078-1.5727539   c0.4589844,0.2680664,0.769043,0.4091797,0.8535156,0.331543c0.0283203,0.0351563,0.1269531,0.0141602,0.2753906-0.0566406   c0.7617188-0.3452148,2.9975586-1.9462891,5.5795898-3.9853516c1.4316406-1.1420898,2.6445313-2.2919922,3.5126953-3.2158203   c-0.0917969,0.2255859-0.1762695,0.465332-0.2612305,0.7333984c-0.5292969,1.59375-0.8535156,3.8935547-1.0083008,6.4047852   c-0.1489258,2.5107422-0.1904297,4.7680664-0.2895508,6.3901367c-0.0771484,1.4814453-0.1762695,2.4477539-0.0844727,2.6313477   c0.0141602,0.0205078,0.0209961,0.027832,0.034668,0.034668c-0.0205078,0.1484375,0.8540039,0.4375,2.2504883,0.769043   c-0.112793,0.3950195-0.21875,0.9238281-0.3173828,1.5800781c-0.2114258,1.480957-0.3032227,3.597168,0.1269531,5.8823242   c0.21875,1.1425781,0.5498047,2.2080078,0.9379883,3.1386719c0.4165039,0.9169922,0.8535156,1.7216797,1.3188477,2.328125   c0.6845703,0.9448242,1.2983398,1.4882813,1.5869141,1.6572266c-0.1689453,0.0283203-0.2744141,0.0917969-0.2607422,0.1625977   c0,0.0493164,0.0493164,0.0986328,0.1201172,0.1479492c-0.1694336-0.0351563-0.3740234-0.0708008-0.5996094-0.0986328   c-0.9453125-0.112793-2.3349609-0.0917969-4.0068359,0.2397461c-0.8388672,0.1762695-1.7416992,0.4233398-2.6796875,0.8251953   c-0.9169922,0.4233398-1.9472656,0.9238281-2.6811523,2.0102539c-0.359375,0.5361328-0.5073242,1.3115234-0.3100586,1.9892578   c0.1904297,0.684082,0.6142578,1.2275391,1.0581055,1.6923828c0.4726563,0.4516602,0.9594727,0.8393555,1.5239258,1.199707   c0.5712891,0.3383789,1.1777344,0.6416016,1.8198242,0.8320313c2.5742188,0.8041992,5.1772461,0.5849609,7.3564453-0.0634766   c2.1723633-0.6772461,4.034668-1.8901367,4.909668-3.4912109c0.4370117-0.7832031,0.5991211-1.6152344,0.5708008-2.3208008   c-0.0068359-0.7055664-0.2182617-1.2841797-0.3876953-1.7280273c-0.2114258-0.4379883-0.3876953-0.762207-0.5498047-0.9594727   c-0.1274414-0.1694336-0.2124023-0.2680664-0.2543945-0.2749023c0.2963867,0,1.4951172-2.4052734,2.9975586-5.3676758   c1.09375-2.1582031,1.9677734-4.0629883,2.2929688-5.0224609c0.1621094-0.1689453,0.3662109-0.3950195,0.6557617-0.6132813   c0.2890625-0.2543945,0.7260742-0.4306641,1.1987305-0.5996094c0.4873047-0.1342773,1.0507813-0.2045898,1.6425781-0.1762695   c1.2070313,0.0634766,2.2167969,0.5498047,2.8359375,1.0297852c0.3466797,0.2680664,0.5869141,0.5288086,0.7558594,0.6914063   c0.4501953,1.0791016,1.3398438,2.8212891,2.4550781,4.7255859c0.4365234,0.7617188,0.8447266,1.4956055,1.2402344,2.1513672   c0.1972656,0.3242188,0.3886719,0.6342773,0.5654297,0.9311523c0.1621094,0.2890625,0.3095703,0.5639648,0.4443359,0.8178711   c0.359375,0.6279297,0.6484375,1.1005859,0.8525391,1.347168c0,0.0073242,0,0.0073242-0.0068359,0.0141602   c-0.0078125,0.0073242-0.0078125,0.0141602-0.0146484,0.0214844c-0.1552734,0.1972656-0.3300781,0.5073242-0.5361328,0.9238281   c-0.1767578,0.4370117-0.3876953,1.0014648-0.4228516,1.699707c-0.0556641,0.6914063,0.0498047,1.5166016,0.4375,2.3208008   c0.7548828,1.6435547,2.5527344,2.9697266,4.6904297,3.6889648c2.1513672,0.6982422,4.7607422,0.9311523,7.3085938,0.0561523   c0.6269531-0.2250977,1.2333984-0.5146484,1.7695313-0.8886719c0.5429688-0.3666992,1.03125-0.7617188,1.4736328-1.2412109   c0.4375-0.4726563,0.8251953-1.0581055,0.9599609-1.7490234c0.1337891-0.6987305-0.078125-1.4179688-0.4238281-1.9399414   c-0.7177734-1.0507813-1.7128906-1.5869141-2.609375-2.0317383c-0.9169922-0.4228516-1.8134766-0.690918-2.6367188-0.8813477   c-1.6435547-0.3808594-3.0263672-0.4160156-3.9726563-0.3173828c-0.0341797,0.0073242-0.0712891,0.0141602-0.1054688,0.0141602   c0.3242188-0.2753906,0.7763672-0.7480469,1.2626953-1.4458008c0.4521484-0.6210938,0.8671875-1.4394531,1.2480469-2.3769531   c0.3613281-0.9526367,0.6416016-2.0317383,0.8105469-3.1811523c0.3320313-2.3066406,0.1699219-4.4086914-0.0683594-5.8901367   c-0.1064453-0.6484375-0.2265625-1.1704102-0.3320313-1.565918c1.3955078-0.3310547,2.2626953-0.6206055,2.2431641-0.7758789   c0.1474609-0.0351563,0.0341797-1.0366211-0.0498047-2.6591797c-0.0996094-1.6293945-0.1416016-3.8789063-0.2890625-6.3974609   c-0.1552734-2.5039063-0.4794922-4.8032227-1.0097656-6.4047852c-0.0839844-0.2602539-0.1689453-0.5004883-0.2529297-0.7260742   c0.8964844,0.909668,2.1640625,2.0102539,3.6386719,3.1103516c1.5742188,1.1850586,3.0478516,2.1796875,4.1123047,2.8920898   c0.875,0.5712891,1.4892578,0.9594727,1.734375,1.0229492l0.0224609-0.0976563   c0.0068359-0.0019531,0.0136719-0.003418,0.0205078-0.0058594c-0.0029297-0.0136719-0.0087891-0.0273438-0.0107422-0.0405273   l0.0087891-0.0375977c0.0410156,0.0078125,0.0761719,0.0117188,0.0947266-0.0058594   c0.0292969,0.0297852-0.0273438,0.0634766-0.0927734,0.0839844c0.1074219,0.3632813,0.8417969,0.737793,1.1640625,1.3901367   c0.3164063,0.6347656,0.9306641,1.3330078,1.8417969,1.7348633c0.8945313,0.3813477,2.0664063,0.4448242,3.1230469-0.0566406   c0.5234375-0.2392578,0.9824219-0.6201172,1.2988281-1.0859375c0.3251953-0.465332,0.4794922-1.0087891,0.5087891-1.5161133   C111.1376953,103.7421875,110.7294922,102.9316406,110.3339844,102.3745117z M45.0395508,105.6157227   c-0.3383789,0.4941406-0.8671875,0.9736328-1.5727539,1.2416992c-0.7050781,0.253418-1.5869141,0.2607422-2.3554688-0.0991211   c-0.7763672-0.359375-1.2485352-1.0507813-1.3125-1.7631836c-0.0566406-0.7192383,0.1835938-1.4174805,0.4726563-1.9609375   c0.4233398-0.7827148,0.8256836-1.3115234,0.987793-1.5942383c0.0844727,0.0498047,0.1621094,0.0922852,0.2607422,0.1552734   c0.5644531,0.324707,1.340332,0.8041992,2.1938477,1.340332c0.796875,0.4794922,1.5019531,0.9379883,2.0522461,1.2763672   C45.6323242,104.5439453,45.4272461,105.0512695,45.0395508,105.6157227z M47.1274414,104.409668   c-0.0776367,0.0917969-0.1269531,0.1694336-0.1552734,0.2260742c-0.0493164-0.3808594-1.1210938-1.5732422-2.7290039-2.5537109   c-0.8896484-0.5571289-1.7636719-0.9589844-2.4550781-1.1425781c-0.4726563-0.1411133-0.8671875-0.1337891-1.0576172-0.0708008   c0.2255859-0.3105469,0.6835938-1.3540039,1.5302734-2.7719727c0.1411133-0.246582,0.3032227-0.5078125,0.4794922-0.7753906   c0.1484375,0.3808594,1.5307617,1.4384766,3.2021484,2.722168c1.4746094,1.1503906,2.7509766,2.0805664,3.3081055,2.3061523   C48.206543,103.2597656,47.4521484,104.0004883,47.1274414,104.409668z M68.0625,102.7524414   c-0.1274414,1.4594727-0.2119141,2.8491211-0.2753906,4.1396484c-0.2539063-0.2319336-0.6484375-0.5498047-1.1494141-0.9238281   c-0.246582-0.1762695-0.5151367-0.3735352-0.8041992-0.5849609c-0.2822266-0.21875-0.578125-0.4516602-0.8886719-0.6987305   c-0.3178711-0.246582-0.6494141-0.5009766-0.9946289-0.7617188c-0.1552734-0.112793-0.1762695-0.1269531-0.1762695-0.1269531   v-0.0073242c0.0141602-0.0205078,0.0566406-0.0488281,0.0708008-0.0629883l0.0556641-0.0424805l0.2753906-0.1972656   c0.1835938-0.1269531,0.3598633-0.2543945,0.5361328-0.3740234c0.3598633-0.2470703,0.7124023-0.4863281,1.0439453-0.7124023   c0.6630859-0.4516602,1.2626953-0.8886719,1.7421875-1.2836914c0.3525391-0.2890625,0.6279297-0.5644531,0.8466797-0.7900391   C68.2319336,101.1088867,68.1401367,101.9199219,68.0625,102.7524414z M67.0395508,98.0336914   c-0.5922852-0.4233398-1.340332-0.9174805-2.2993164-1.2626953l-0.1831055-0.0639648c0-0.0068359,0-0.0068359,0-0.0068359   l-0.0073242-0.0073242c-0.0141602-0.0068359,0.0141602-0.0141602,0.0141602-0.0141602h0.0068359   c0-0.0068359-0.0209961,0.0214844,0.0424805-0.0493164c0.0849609-0.0913086,0.1621094-0.1899414,0.2612305-0.2817383   c0.1831055-0.1835938,0.3735352-0.3666992,0.5639648-0.5571289c1.5375977-1.4956055,3.1176758-2.6806641,4.2319336-3.5761719   c0.3027344-0.2397461,0.5595703-0.4472656,0.7929688-0.6381836c-0.0239258,0.0317383-0.0410156,0.0498047-0.0385742,0.0341797   c-0.2753906,0.5571289-0.3100586,1.4360352-0.6342773,2.3671875c-0.3881836,1.0859375-0.7407227,2.4052734-1.0439453,3.9008789   c-0.0849609,0.4228516-0.1621094,0.8603516-0.2329102,1.3115234C68.2104492,98.921875,67.7094727,98.5341797,67.0395508,98.0336914   z M81.9160156,102.6464844c-0.078125-0.8325195-0.1689453-1.6430664-0.2744141-2.4335938   c0.2109375,0.2329102,0.4863281,0.5004883,0.8378906,0.7905273c0.4794922,0.4013672,1.0800781,0.8388672,1.7421875,1.2900391   c0.3388672,0.2255859,0.6845703,0.4589844,1.0439453,0.7055664c0.1767578,0.1269531,0.3603516,0.2539063,0.5371094,0.3808594   l0.2734375,0.1904297l0.0566406,0.0419922c0.0146484,0.0214844,0.0507813,0.0424805,0.0712891,0.0639648v0.0068359   c0,0-0.0146484,0.0068359-0.1748047,0.1337891c-0.3466797,0.2612305-0.6787109,0.5151367-0.9951172,0.7548828   c-0.3115234,0.2470703-0.6074219,0.4794922-0.8896484,0.7050781c-0.2890625,0.2045898-0.5576172,0.4023438-0.8046875,0.5859375   c-0.5,0.3740234-0.8955078,0.684082-1.1484375,0.9238281C82.1279297,105.4887695,82.0419922,104.0991211,81.9160156,102.6464844z    M103.8457031,103.2558594c-0.3603516,0.3881836-0.5576172,0.6982422-0.5791016,0.8603516   c-0.0332031,0.0019531-0.0507813,0.0024414-0.0771484,0.003418l-0.0146484,0.0668945   c-0.0117188-0.0180664-0.0332031-0.0439453-0.0478516-0.0639648c0.0175781-0.0009766,0.0410156-0.0014648,0.0625-0.0029297   l0.0205078-0.0947266c0.0097656,0.0146484-0.0546875,0.0336914-0.1191406,0.0517578   c-0.2148438-0.2802734-0.6328125-0.7167969-1.25-1.2539063c-0.2451172-0.2255859-0.5283203-0.4658203-0.8378906-0.7197266   c0.6484375-0.359375,1.7695313-1.1777344,3.0322266-2.1655273c1.6728516-1.2836914,3.0537109-2.3413086,3.203125-2.7226563   c0.1748047,0.2685547,0.3388672,0.5219727,0.4794922,0.7763672c0.7119141,1.1967773,1.1474609,2.1152344,1.4042969,2.5639648   c-0.0136719-0.0019531-0.0205078-0.0068359-0.0361328-0.0078125c-0.2109375-0.0424805-0.4931641-0.0068359-0.8251953,0.0776367   c-0.6708984,0.1479492-1.515625,0.5219727-2.3779297,1.0439453   C105.015625,102.1835938,104.3105469,102.7763672,103.8457031,103.2558594z M108.8876953,106.465332   c-0.7675781,0.3666992-1.6494141,0.3525391-2.3544922,0.0986328c-0.7050781-0.2607422-1.2353516-0.7402344-1.5742188-1.2412109   c-0.4150391-0.5922852-0.6191406-1.1352539-0.7548828-1.4672852c0.0273438-0.0209961,0.0498047-0.0283203,0.0839844-0.0493164   c0.5449219-0.331543,1.2851563-0.7832031,2.1103516-1.2763672c0.8251953-0.5009766,1.5722656-0.9526367,2.1083984-1.2485352   c0.0927734-0.0424805,0.1621094-0.0917969,0.2333984-0.1342773c0.1621094,0.2822266,0.5644531,0.8110352,0.9873047,1.5942383   c0.2900391,0.5429688,0.5283203,1.2412109,0.4716797,1.9677734   C110.1357422,105.4213867,109.6640625,106.112793,108.8876953,106.465332z" fill="#1D1D1B"/><ellipse cx="74.6037598" cy="49.1704102" fill="#024421" rx="23.9899902" ry="5.362793"/><path d="M57.4692383,12.0249023l2.4692383,35.5166016c0,1.6235352,5.2026367,2.9389648,14.6640625,2.9389648   c9.4638672,0,14.6660156-1.3154297,14.6660156-2.9389648l2.4677734-35.5166016H57.4692383z" fill="#006633"/><ellipse cx="74.6027832" cy="12.0249023" fill="#024421" rx="17.1335449" ry="2.9384766"/><path d="M75.1328125,39.0776367c-8.8706055,0-15.9868164-1.315918-15.9868164-2.9389648l0.5410156,7.7880859   c0,1.6230469,6.5751953,2.909668,15.4458008,2.909668c8.8710938,0,14.3417969-1.1542969,14.3417969-2.7773438l0.5869141-7.9204102   C90.0615234,37.7617188,84.0039063,39.0776367,75.1328125,39.0776367z" fill="#024421"/><rect fill="#F9B233" height="7.8129883" width="7.2216797" x="70.921875" y="38.9750977"/><rect fill="#006633" height="4.5288086" width="4.1860352" x="72.4399414" y="40.6171875"/><circle cx="66.4123535" cy="60.3208008" fill="#1D1D1B" r="2.1159668"/><circle cx="84.0463867" cy="60.3208008" fill="#1D1D1B" r="2.1166992"/><path d="M84.2226563,72.6645508c-0.0712891-0.1362305-1.0791016,0.2490234-2.6806641,0.815918   c-1.6289063,0.5019531-3.9101563,1.0698242-6.4853516,1.0922852c-2.5800781-0.0073242-4.8525391-0.6274414-6.4882813-1.1000977   c-1.6010742-0.574707-2.6162109-0.9404297-2.6850586-0.8081055c-0.0605469,0.1108398,0.8466797,0.7045898,2.4355469,1.4692383   c1.6210938,0.6611328,3.9970703,1.4306641,6.7358398,1.4384766c2.7333984-0.0214844,5.1230469-0.7397461,6.7373047-1.4311523   C83.3837891,73.3837891,84.2822266,72.7705078,84.2226563,72.6645508z" fill="#1D1D1B"/><g><path d="M74.9897461,67.2734375c-0.1572266-0.1875-0.7573242,0.1235352-1.6274414,0.4477539    c-0.4257813,0.1489258-0.9594727,0.2636719-1.3208008,0.1586914c-0.3291016-0.0966797-0.5136719-0.3486328-0.5356445-0.8452148    c-0.0073242-0.4829102,0.2436523-0.9492188,0.5961914-1.2568359c0.3642578-0.3056641,0.8339844-0.4912109,1.2734375-0.5820313    c0.8852539-0.1821289,1.5610352-0.1655273,1.6147461-0.4091797c0.0517578-0.1953125-0.5019531-0.6479492-1.6782227-0.7680664    c-0.5791016-0.0488281-1.3549805,0.0380859-2.1108398,0.515625c-0.7407227,0.4775391-1.3754883,1.4111328-1.3618164,2.5161133    c0.0043945,0.5449219,0.1708984,1.1098633,0.5332031,1.5625c0.3583984,0.4589844,0.9223633,0.7265625,1.4140625,0.7817383    c1.0058594,0.0878906,1.6650391-0.3183594,2.1342773-0.6352539    C74.8354492,68.0571289,75.1279297,67.4316406,74.9897461,67.2734375z" fill="#49310A"/></g></g></svg>